# xmcd
#
# Track frame offsets:
#	150
#	40263
#	65288
#	85575
#	106145
#	127979
#	140362
#	160483
#	177474
#	193954
#	211729
#	229031
#	247218
#	264496
#	282046
#	307107
#	329746
#
# Disc length: 4632 seconds
#
# Revision: 1
# Processed by: cddbd v1.5.1PL0 Copyright (c) Steve Scherf et al.
# Submitted via: audiograbber 1.83.01
#
DISCID=fa121611
DTITLE=The Harlem Gospel Singers and Band - The Harlem Gospel Singers and Band
DYEAR=2005
DGENRE=Gospel
TTITLE0=Walking In Memphis
TTITLE1=Oh Happy Day
TTITLE2=Who's Gonna Carry You
TTITLE3=Free
TTITLE4=On The Mountain
TTITLE5=Watchtower
TTITLE6=Prove Me Wrong
TTITLE7=Wade In The Water
TTITLE8=Miracle
TTITLE9=He's God
TTITLE10=To Gether A Dream
TTITLE11=Have A Talk With God
TTITLE12=After The Tears (I'm Gonna Make It)
TTITLE13=HappinessTrack 14
TTITLE14=When The Saints Go Marching In (Live)Track 15
TTITLE15=Joy (Live)
TTITLE16=Higher And Higher (Live)
EXTD=
EXTT0=
EXTT1=
EXTT2=
EXTT3=
EXTT4=
EXTT5=
EXTT6=
EXTT7=
EXTT8=
EXTT9=
EXTT10=
EXTT11=
EXTT12=
EXTT13=
EXTT14=
EXTT15=
EXTT16=
PLAYORDER=
